<svg width="32" height="36" viewBox="0 0 32 36" fill="none" xmlns="http://www.w3.org/2000/svg">
<path d="M31.5287 32.9797L26.6963 9.21023C26.6106 7.9148 25.5878 6.88852 24.3429 6.88852H23.468C22.9355 2.99827 19.7656 0 15.9464 0C12.127 0 8.95719 2.99827 8.42474 6.88845H7.3046C6.06048 6.88845 5.03816 7.91346 4.95137 9.20784L0.0560302 32.9709C-0.16331 34.0359 0.274108 35.1152 1.14436 35.6565C1.50541 35.8812 1.91773 36 2.33662 36H19.375H21.3836H29.2458C29.7184 36 30.175 35.8516 30.5663 35.5707C31.3559 35.0044 31.7336 33.9873 31.5287 32.9797ZM15.9464 2.77552C18.3158 2.77552 20.3026 4.53748 20.8031 6.88852H20.2634H19.4075H11.0896C11.5901 4.53748 13.5769 2.77552 15.9464 2.77552ZM21.3835 33.2245H19.3749H2.68665L7.53649 9.6821L7.54028 9.66396H19.4075H20.2633H24.1072L28.8971 33.2245H21.3835Z" fill="black"/>
</svg>
