<svg width="25" height="23" viewBox="0 0 25 23" fill="none" xmlns="http://www.w3.org/2000/svg">
<path d="M15.2344 0H9.76562C9.33437 0 8.98438 0.322 8.98438 0.71875V2.875H3.90625C3.475 2.875 3.125 3.197 3.125 3.59375C3.125 3.9905 3.475 4.3125 3.90625 4.3125H4.6875V22.2812C4.6875 22.678 5.0375 23 5.46875 23H19.5312C19.9625 23 20.3125 22.678 20.3125 22.2812V4.3125H21.0938C21.525 4.3125 21.875 3.9905 21.875 3.59375C21.875 3.197 21.525 2.875 21.0938 2.875H16.0156V0.71875C16.0156 0.322 15.6656 0 15.2344 0ZM18.75 4.3125V21.5625H6.25V4.3125H18.75ZM10.5469 2.875V1.4375H14.4531V2.875H10.5469Z" fill="black"/>
<path d="M10.1562 20.125C10.5875 20.125 10.9375 19.803 10.9375 19.4062V7.1875C10.9375 6.79075 10.5875 6.46875 10.1562 6.46875C9.725 6.46875 9.375 6.79075 9.375 7.1875V19.4062C9.375 19.803 9.725 20.125 10.1562 20.125Z" fill="black"/>
<path d="M14.8438 20.125C15.275 20.125 15.625 19.803 15.625 19.4062V7.1875C15.625 6.79075 15.275 6.46875 14.8438 6.46875C14.4125 6.46875 14.0625 6.79075 14.0625 7.1875V19.4062C14.0625 19.803 14.4125 20.125 14.8438 20.125Z" fill="black"/>
</svg>
