<svg width="18" height="18" viewBox="0 0 18 18" fill="none" xmlns="http://www.w3.org/2000/svg">
<g clip-path="url(#clip0_3_47)">
<path d="M16.5461 2.55674C15.6036 1.6142 14.3558 1.09904 13.024 1.09904C11.6922 1.09904 10.4406 1.61801 9.49803 2.56056L9.00577 3.05282L8.50587 2.55293C7.56333 1.61038 6.30787 1.08759 4.9761 1.08759C3.64814 1.08759 2.3965 1.60657 1.45777 2.5453C0.51522 3.48784 -0.00375312 4.73948 6.28569e-05 6.07126C6.28569e-05 7.40304 0.522852 8.65086 1.4654 9.59341L8.6318 16.7598C8.73102 16.859 8.86458 16.9124 8.99432 16.9124C9.12406 16.9124 9.25762 16.8628 9.35684 16.7636L16.5385 9.60867C17.4811 8.66612 18 7.41448 18 6.08271C18.0038 4.75093 17.4887 3.49929 16.5461 2.55674ZM15.8135 8.87982L8.99432 15.6723L2.19043 8.86837C1.4425 8.12044 1.03038 7.12828 1.03038 6.07126C1.03038 5.01423 1.43869 4.02208 2.18662 3.27796C2.93073 2.53385 3.92289 2.12172 4.9761 2.12172C6.03312 2.12172 7.02909 2.53385 7.77702 3.28178L8.63943 4.14419C8.84168 4.34644 9.16604 4.34644 9.36829 4.14419L10.2231 3.28941C10.971 2.54148 11.967 2.12935 13.0202 2.12935C14.0734 2.12935 15.0655 2.54148 15.8135 3.2856C16.5614 4.03353 16.9697 5.02568 16.9697 6.08271C16.9735 7.13973 16.5614 8.13189 15.8135 8.87982Z" fill="black"/>
</g>
<defs>
<clipPath id="clip0_3_47">
<rect width="18" height="18" fill="white"/>
</clipPath>
</defs>
</svg>
