<svg width="31" height="23" viewBox="0 0 31 23" fill="none" xmlns="http://www.w3.org/2000/svg">
<path d="M3 9.57012C3 14.8497 7.48157 19.1402 12.9853 19.1402C15.5209 19.1402 17.8403 18.2266 19.6044 16.7289L25.9681 22.8279C26.086 22.941 26.2383 22.9975 26.3956 22.9975C26.5528 22.9975 26.7052 22.941 26.8231 22.8279C27.059 22.6019 27.059 22.2392 26.8231 22.0132L20.4545 15.9141C22.0172 14.2233 22.9705 12.005 22.9705 9.57012C22.9705 4.29054 18.4889 0 12.9853 0C7.48157 0 3 4.29054 3 9.57012ZM21.7666 9.57012C21.7666 14.2092 17.8256 17.9864 12.9853 17.9864C8.14496 17.9864 4.20393 14.2092 4.20393 9.57012C4.20393 4.93106 8.14496 1.15388 12.9853 1.15388C17.8256 1.15388 21.7666 4.92635 21.7666 9.57012Z" fill="black"/>
</svg>
