<svg width="17" height="16" viewBox="0 0 17 16" fill="none" xmlns="http://www.w3.org/2000/svg">
<g clip-path="url(#clip0_3_42)">
<path d="M3.81279 15.6152C4.01011 15.6152 4.22832 15.5688 4.45905 15.4708L8.50081 13.3987L12.5426 15.4708C12.7732 15.5688 12.9915 15.6152 13.1887 15.6152C13.8003 15.6152 14.2132 15.1694 14.1844 14.4321L13.6565 10.2234L16.6733 7.30631C17.3009 6.52904 16.9973 5.69506 15.995 5.44349L11.5083 4.765L9.52741 1.01332C9.23697 0.595105 8.84554 0.384773 8.45028 0.384773C8.07289 0.384773 7.69283 0.576353 7.39438 0.961638L5.09813 4.76474L0.997419 5.41301C0.000125895 5.68127 -0.299555 6.52872 0.328015 7.30605L3.34468 10.2229L2.8168 14.4315C2.78804 15.1694 3.20104 15.6152 3.81279 15.6152ZM1.41959 6.59522L5.3151 5.9793L5.92863 5.88232L6.23619 5.37286L8.44022 1.72241L10.336 5.31254L10.6358 5.88019L11.3007 5.98053L15.5526 6.62364L12.7189 9.36329L12.2839 9.78434L12.3567 10.3672L12.8399 14.2204L9.12687 12.3163L8.50074 11.9955L7.87447 12.3163L4.1617 14.2204L4.64453 10.3672L4.71752 9.78434L4.28261 9.36329L1.41959 6.59522Z" fill="black"/>
</g>
<defs>
<clipPath id="clip0_3_42">
<rect width="17" height="16" fill="white"/>
</clipPath>
</defs>
</svg>
